<?xml version="1.0" standalone="no"?>
<!DOCTYPE svg PUBLIC "-//W3C//DTD SVG 20010904//EN"
 "http://www.w3.org/TR/2001/REC-SVG-20010904/DTD/svg10.dtd">
<svg version="1.0" xmlns="http://www.w3.org/2000/svg"
 width="330.000000pt" height="330.000000pt" viewBox="0 0 330.000000 330.000000"
 preserveAspectRatio="xMidYMid meet">
<metadata>
Created by potrace 1.14, written by Peter Selinger 2001-2017
</metadata>
<g transform="translate(0.000000,330.000000) scale(0.100000,-0.100000)"
fill="#000000" stroke="none">
<path d="M1441 3240 c-671 -94 -1206 -597 -1353 -1274 -32 -147 -32 -455 0
-602 69 -317 233 -622 443 -823 139 -132 254 -214 417 -295 91 -46 252 -100
262 -89 4 4 104 341 221 747 l214 739 3 -788 2 -788 110 6 c198 12 379 58 566
147 461 217 775 617 885 1130 20 90 23 134 23 310 0 175 -3 220 -22 310 -141
649 -604 1114 -1248 1251 -112 24 -410 35 -523 19z"/>
</g>
</svg>
